<svg width="1776" height="1565" viewBox="0 0 1776 1565" fill="none" xmlns="http://www.w3.org/2000/svg">
<g opacity="0.09">
<line y1="1534.11" x2="1511.58" y2="1534.11" stroke="#222020" stroke-width="1.2607"/>
<line y1="888.636" x2="1511.58" y2="888.636" stroke="#222020" stroke-width="1.2607"/>
<line y1="1211.37" x2="1511.58" y2="1211.37" stroke="#222020" stroke-width="1.2607"/>
<line y1="565.898" x2="1511.58" y2="565.898" stroke="#222020" stroke-width="1.2607"/>
<line y1="243.158" x2="1511.58" y2="243.158" stroke="#222020" stroke-width="1.2607"/>
<line y1="1372.74" x2="1511.58" y2="1372.74" stroke="#222020" stroke-width="1.2607"/>
<line y1="727.266" x2="1511.58" y2="727.266" stroke="#222020" stroke-width="1.2607"/>
<line y1="1050" x2="1511.58" y2="1050" stroke="#222020" stroke-width="1.2607"/>
<line y1="404.528" x2="1511.58" y2="404.528" stroke="#222020" stroke-width="1.2607"/>
<line y1="81.7897" x2="1511.58" y2="81.7897" stroke="#222020" stroke-width="1.2607"/>
<line y1="1453.43" x2="1511.58" y2="1453.43" stroke="#222020" stroke-width="1.2607"/>
<line y1="807.951" x2="1511.58" y2="807.951" stroke="#222020" stroke-width="1.2607"/>
<line y1="1130.69" x2="1511.58" y2="1130.69" stroke="#222020" stroke-width="1.2607"/>
<line y1="485.213" x2="1511.58" y2="485.213" stroke="#222020" stroke-width="1.2607"/>
<line y1="162.475" x2="1511.58" y2="162.475" stroke="#222020" stroke-width="1.2607"/>
<line y1="1292.06" x2="1511.58" y2="1292.06" stroke="#222020" stroke-width="1.2607"/>
<line y1="646.581" x2="1511.58" y2="646.581" stroke="#222020" stroke-width="1.2607"/>
<line y1="969.321" x2="1511.58" y2="969.321" stroke="#222020" stroke-width="1.2607"/>
<line y1="323.843" x2="1511.58" y2="323.843" stroke="#222020" stroke-width="1.2607"/>
<line y1="1.10451" x2="1511.58" y2="1.10451" stroke="#222020" stroke-width="1.2607"/>
<line x1="47.2753" y1="268.801" x2="47.2753" y2="1436.21" stroke="#222020" stroke-width="1.2607"/>
<line x1="692.756" y1="268.801" x2="692.756" y2="1436.21" stroke="#222020" stroke-width="1.2607"/>
<line x1="370.016" y1="268.801" x2="370.016" y2="1436.21" stroke="#222020" stroke-width="1.2607"/>
<line x1="1015.49" y1="268.801" x2="1015.49" y2="1436.21" stroke="#222020" stroke-width="1.2607"/>
<line x1="1338.23" y1="268.801" x2="1338.23" y2="1436.21" stroke="#222020" stroke-width="1.2607"/>
<line x1="208.645" y1="268.801" x2="208.645" y2="1436.21" stroke="#222020" stroke-width="1.2607"/>
<line x1="854.122" y1="268.801" x2="854.122" y2="1436.21" stroke="#222020" stroke-width="1.2607"/>
<line x1="531.386" y1="268.801" x2="531.386" y2="1436.21" stroke="#222020" stroke-width="1.2607"/>
<line x1="1176.86" y1="268.801" x2="1176.86" y2="1436.21" stroke="#222020" stroke-width="1.2607"/>
<line x1="1499.6" y1="268.801" x2="1499.6" y2="1436.21" stroke="#222020" stroke-width="1.2607"/>
<line x1="127.963" y1="268.801" x2="127.963" y2="1436.21" stroke="#222020" stroke-width="1.2607"/>
<line x1="773.439" y1="268.801" x2="773.439" y2="1436.21" stroke="#222020" stroke-width="1.2607"/>
<line x1="450.698" y1="268.801" x2="450.698" y2="1436.21" stroke="#222020" stroke-width="1.2607"/>
<line x1="1096.18" y1="268.801" x2="1096.18" y2="1436.21" stroke="#222020" stroke-width="1.2607"/>
<line x1="1418.92" y1="268.801" x2="1418.92" y2="1436.21" stroke="#222020" stroke-width="1.2607"/>
<line x1="289.333" y1="268.801" x2="289.333" y2="1436.21" stroke="#222020" stroke-width="1.2607"/>
<line x1="934.809" y1="268.801" x2="934.809" y2="1436.21" stroke="#222020" stroke-width="1.2607"/>
<line x1="612.069" y1="268.801" x2="612.069" y2="1436.21" stroke="#222020" stroke-width="1.2607"/>
<line x1="1257.55" y1="268.801" x2="1257.55" y2="1436.21" stroke="#222020" stroke-width="1.2607"/>
<line x1="1580.29" y1="268.801" x2="1580.29" y2="1436.21" stroke="#222020" stroke-width="1.2607"/>
</g>
<g opacity="0.5">
<rect x="934.847" y="1050.16" width="80.2262" height="80.2262" fill="#D9AB52" fill-opacity="0.5"/>
<rect x="531.423" y="1050.16" width="80.2262" height="80.2262" fill="#D9AB52" fill-opacity="0.2"/>
<rect x="1258.04" y="486.286" width="80.2262" height="79.0801" fill="#D9AB52" fill-opacity="0.25"/>
<rect x="611.65" y="728.06" width="80.2262" height="79.0801" fill="#D9AB52" fill-opacity="0.15"/>
<rect x="1176.67" y="566.512" width="80.2262" height="79.0801" fill="#D9AB52" fill-opacity="0.25"/>
<rect x="531.277" y="486.286" width="80.2262" height="79.0801" fill="#D9AB52" fill-opacity="0.15"/>
<rect x="1176.67" y="486.286" width="80.2262" height="79.0801" fill="#D9AB52" fill-opacity="0.25"/>
<rect x="531.277" y="728.06" width="80.2262" height="79.0801" fill="#D9AB52" fill-opacity="0.15"/>
<rect x="451.197" y="1050.16" width="80.2262" height="80.2262" fill="#D9AB52" fill-opacity="0.2"/>
<rect x="451.197" y="1130.39" width="80.2262" height="81.3723" fill="#D9AB52" fill-opacity="0.2"/>
<rect x="289.599" y="969.935" width="80.2262" height="80.2262" fill="#D9AB52" fill-opacity="0.2"/>
<rect x="1096.45" y="324.687" width="80.2262" height="80.2262" fill="#D9AB52" fill-opacity="0.15"/>
<rect x="1015.34" y="244" width="80.2262" height="79.5062" fill="#D9AB52" fill-opacity="0.15"/>
<rect x="1015.34" y="324.258" width="80.2262" height="80.0285" fill="#D9AB52" fill-opacity="0.15"/>
<rect x="289.599" y="403.767" width="81.3723" height="82.5184" fill="#D9AB52" fill-opacity="0.2"/>
<rect x="208.226" y="323.541" width="81.3723" height="80.2262" fill="#D9AB52" fill-opacity="0.2"/>
<rect x="128" y="324.687" width="81.3723" height="80.2262" fill="#D9AB52" fill-opacity="0.2"/>
<rect x="208.226" y="403.767" width="81.3723" height="82.5184" fill="#D9AB52" fill-opacity="0.2"/>
<rect x="531.423" y="243.315" width="81.3723" height="80.2262" fill="#D9AB52" fill-opacity="0.25"/>
<rect x="289.599" y="565.366" width="80.2262" height="81.3723" fill="#D9AB52" fill-opacity="0.2"/>
<rect x="1258.04" y="969.935" width="80.2262" height="80.2262" fill="#D9AB52" fill-opacity="0.15"/>
<rect x="1338.27" y="1050.16" width="80.2262" height="80.2262" fill="#D9AB52" fill-opacity="0.15"/>
</g>
</svg>
